Coordinates
version=1
nRows=19
nColumns=24
inDegrees=yes

Units are S.I. units (second, meters, Newtons, ...)
Angles are in degrees.

endheader
time	pelvis_tilt	pelvis_list	pelvis_rotation	pelvis_tx	pelvis_ty	pelvis_tz	hip_flexion_r	hip_adduction_r	hip_rotation_r	knee_angle_r	ankle_angle_r	subtalar_angle_r	mtp_angle_r	hip_flexion_l	hip_adduction_l	hip_rotation_l	knee_angle_l	ankle_angle_l	subtalar_angle_l	mtp_angle_l	lumbar_extension	lumbar_bending	lumbar_rotation
      2.50000000	     -5.96276578	     -3.20775983	      8.53688740	      0.48191391	      1.03168698	      1.42185108	     25.62098598	     -1.95982320	     -6.82428923	    -52.48176694	      6.32736917	      3.69678526	    -44.78643867	      5.20538493	     -3.05160416	      1.90542259	     -9.81722938	      7.96278162	     19.55919856	    -36.12991748	     -4.41032920	      1.62934801	     -9.34054259
      2.51000000	     -6.11899347	     -3.30552599	      8.92594275	      0.48005265	      1.03136470	      1.42142795	     26.75875801	     -2.20056880	     -7.28103934	    -51.12425044	      6.71830104	      3.28290398	    -45.17055683	      4.70838171	     -3.25604810	      1.70532719	     -9.71949150	      8.01044220	     20.26595668	    -36.25691619	     -4.33307227	      1.69008954	     -9.65306729
      2.52000000	     -6.28427516	     -3.38625081	      9.28752494	      0.47813336	      1.03094776	      1.42103143	     27.81824403	     -2.47427369	     -7.75765945	    -49.59620286	      6.97524771	      2.99064945	    -45.18177935	      4.18427474	     -3.41625496	      1.83786493	     -9.55887821	      8.04531747	     20.53844747	    -36.27187650	     -4.25728265	      1.73828094	     -9.90765553
      2.53000000	     -6.50612741	     -3.47600831	      9.59175655	      0.47614497	      1.03038400	      1.42079152	     28.86279687	     -2.69437961	     -8.17983081	    -47.89409988	      7.04984876	      2.42411354	    -45.42252423	      3.79320758	     -3.61036900	      1.67115463	     -9.53214949	      8.14475260	     21.11463055	    -36.30599364	     -4.12859880	      1.78131800	    -10.11742289
      2.54000000	     -6.68366360	     -3.53523502	      9.90092904	      0.47415019	      1.02979291	      1.42055090	     29.76295492	     -2.98641831	     -8.72619291	    -46.05640399	      7.13300467	      2.05303976	    -45.86855665	      3.36338760	     -3.78257805	      1.51594901	     -9.51652019	      8.16310648	     21.68317557	    -36.33414294	     -4.05953995	      1.80474313	    -10.31472459
      2.55000000	     -6.88097253	     -3.59057617	     10.18150225	      0.47210767	      1.02912948	      1.42037759	     30.58757237	     -3.24948692	     -9.24338865	    -44.05233346	      7.08170743	      1.70653657	    -45.96419420	      2.92502487	     -3.92654592	      1.63610400	     -9.45274734	      8.24479427	     21.87006486	    -36.32820628	     -3.97781387	      1.82393591	    -10.48058066
      2.56000000	     -7.07995454	     -3.63287900	     10.45022611	      0.47005211	      1.02841442	      1.42024736	     31.32188823	     -3.53115659	     -9.83164965	    -41.91726392	      6.95058430	      1.51814451	    -46.02627721	      2.49624451	     -4.06344474	      1.70832019	     -9.39671916	      8.26443049	     22.05608698	    -36.32578732	     -3.90157365	      1.83267582	    -10.63836814
      2.57000000	     -7.29071663	     -3.68415553	     10.67966197	      0.46798504	      1.02765245	      1.42020383	     31.97215585	     -3.75796789	    -10.38981172	    -39.62981732	      6.76489556	      1.46958730	    -46.07563641	      2.08240635	     -4.21309403	      1.78292438	     -9.34401167	      8.25374410	     22.21744879	    -36.32604268	     -3.81623393	      1.85301949	    -10.73617823
      2.58000000	     -7.50351787	     -3.71244140	     10.91053862	      0.46592832	      1.02685555	      1.42022094	     32.53523463	     -3.98742916	    -10.98345454	    -37.23388624	      6.48278923	      1.48675460	    -46.13340410	      1.66487995	     -4.34819648	      1.84205281	     -9.27933032	      8.24526979	     22.40197093	    -36.32491863	     -3.73598046	      1.84450659	    -10.86979537
      2.59000000	     -7.70652764	     -3.72924051	     11.14715577	      0.46390462	      1.02604573	      1.42028851	     32.99617433	     -4.20040361	    -11.59755711	    -34.73648385	      6.14051506	      1.63265263	    -46.19643154	      1.23607957	     -4.48447231	      1.86900487	     -9.20788206	      8.21913029	     22.62448100	    -36.32288248	     -3.66904874	      1.82736497	    -11.03408230
      2.60000000	     -7.89314145	     -3.73633038	     11.38062759	      0.46192592	      1.02523874	      1.42039123	     33.35393167	     -4.39295894	    -12.23080085	    -32.16224244	      5.78727021	      1.98501769	    -46.24800094	      0.80326389	     -4.62353307	      1.87876393	     -9.16440467	      8.15131428	     22.91395634	    -36.32212821	     -3.62269199	      1.80742394	    -11.18499221
      2.61000000	     -8.08961734	     -3.73673363	     11.61122316	      0.46001696	      1.02440553	      1.42053880	     33.65818247	     -4.56994205	    -12.89956766	    -29.56803329	      5.42564294	      2.50849670	    -46.27707826	      0.37630646	     -4.76405275	      1.86594437	     -9.11237705	      8.05170466	     23.21792058	    -36.32687725	     -3.56250970	      1.78190066	    -11.34294064
      2.62000000	     -8.31899780	     -3.74447429	     11.83373245	      0.45818711	      1.02352729	      1.42074435	     33.94604811	     -4.70670767	    -13.56367600	    -26.98119898	      5.03424909	      3.07016004	    -46.31221297	     -0.02502014	     -4.91386133	      1.85959726	     -9.03961493	      7.92617665	     23.45324677	    -36.34034621	     -3.45846173	      1.75938431	    -11.50513070
      2.63000000	     -8.46625646	     -3.72222343	     12.09119948	      0.45649200	      1.02273223	      1.42092501	     34.09467148	     -4.86932853	    -14.34103753	    -24.47590453	      4.82164349	      3.94248053	    -46.25558297	     -0.48011877	     -5.06939506	      1.78445092	     -9.03904259	      7.77012861	     23.94529998	    -36.37119307	     -3.44443810	      1.73120140	    -11.68663364
      2.64000000	     -8.64857527	     -3.69351358	     12.36581694	      0.45487626	      1.02191207	      1.42113315	     34.24562986	     -5.01052128	    -15.09073483	    -22.05292294	      4.58206904	      4.67558614	    -46.20849628	     -0.87285779	     -5.21639914	      1.74106544	     -9.08259635	      7.57414543	     24.33369527	    -36.41516503	     -3.38997839	      1.69141552	    -11.90997246
      2.65000000	     -8.81918184	     -3.67289076	     12.65613252	      0.45340189	      1.02110617	      1.42136251	     34.36333134	     -5.12700007	    -15.86200842	    -19.78483399	      4.47761923	      5.45906145	    -46.15274223	     -1.26506060	     -5.38793391	      1.70275320	     -9.14256241	      7.34321683	     24.74676605	    -36.47988986	     -3.33686522	      1.66855814	    -12.14038113
      2.66000000	     -8.99985148	     -3.66884064	     12.94461649	      0.45208247	      1.02029289	      1.42162211	     34.49013883	     -5.21330416	    -16.62803714	    -17.73532742	      4.55699192	      6.26916715	    -46.06155963	     -1.63607406	     -5.58770005	      1.65306219	     -9.21739257	      7.08019413	     25.20094999	    -36.58372871	     -3.25765113	      1.66891444	    -12.36215424
      2.67000000	     -9.16028820	     -3.65018438	     13.26739020	      0.45089016	      1.01952037	      1.42186489	     34.58251949	     -5.30618174	    -17.35456141	    -15.91327974	      4.75957619	      6.94855830	    -45.98161435	     -1.99410581	     -5.78054643	      1.67339470	     -9.35462294	      6.76955796	     25.56092023	    -36.71524455	     -3.19898323	      1.66681085	    -12.62250606
      2.68000000	     -9.32290997	     -3.63493313	     13.60862172	      0.44984618	      1.01876437	      1.42212488	     34.66572714	     -5.38484918	    -17.98698763	    -14.34165510	      5.09821305	      7.48502204	    -45.92155108	     -2.33266263	     -5.98081034	      1.77719439	     -9.51498885	      6.40359689	     25.81667077	    -36.86142387	     -3.12852974	      1.67215011	    -12.90617805
